<?xml version="1.0" encoding="UTF-8"?>
<svg id="Capa_2" data-name="Capa 2" xmlns="http://www.w3.org/2000/svg" viewBox="0 0 599.68 4.74">
  <defs>
    <style>
      .cls-1 {
        fill: #302b2b;
      }
    </style>
  </defs>
  <g id="Capa_3" data-name="Capa 3">
    <path class="cls-1" d="M0,4.74h599.68V0h-1.76c-1.47,1.24-3.39,2-5.5,2s-4.03-.76-5.5-2h-1.76c-1.47,1.24-3.39,2-5.5,2s-4.03-.76-5.5-2h-1.76c-1.47,1.24-3.39,2-5.5,2s-4.03-.76-5.5-2h-1.76c-1.47,1.24-3.39,2-5.5,2s-4.03-.76-5.5-2h-1.76c-1.47,1.24-3.39,2-5.5,2s-4.03-.76-5.5-2h-1.76c-1.47,1.24-3.39,2-5.5,2s-4.03-.76-5.5-2h-1.76c-1.47,1.24-3.39,2-5.5,2s-4.03-.76-5.5-2h-1.76c-1.47,1.24-3.39,2-5.5,2s-4.03-.76-5.5-2h-1.76c-1.47,1.24-3.39,2-5.5,2s-4.03-.76-5.5-2h-.11s0,0,0,0h-.02s-1.51,0-1.51,0h-.12c-1.45,1.23-3.35,1.98-5.44,2-2.09-.01-3.99-.77-5.44-2h-1.88c-1.45,1.23-3.35,1.98-5.44,2-2.09-.01-3.99-.77-5.44-2h-1.88c-1.45,1.22-3.34,1.98-5.41,2-2.08-.02-3.96-.77-5.41-2h-1.82c-1.46,1.23-3.37,1.99-5.46,2-.17,0-.32-.03-.49-.04-.35-.02-.71-.03-1.05-.1-.2-.04-.39-.11-.58-.16-.29-.07-.58-.13-.86-.24-.27-.1-.52-.24-.77-.37-.18-.09-.37-.16-.55-.26-.42-.25-.81-.52-1.18-.83h-1.76c-1.47,1.24-3.39,2-5.5,2s-4.03-.76-5.5-2h-1.76c-1.47,1.24-3.39,2-5.5,2s-4.03-.76-5.5-2h-1.76c-1.47,1.24-3.39,2-5.5,2s-4.03-.76-5.5-2h-1.76c-1.47,1.24-3.39,2-5.5,2-.35,0-.69-.05-1.03-.09-1.32-.16-2.53-.6-3.58-1.28-.31-.2-.61-.39-.89-.63h-1.76c-.98.83-2.17,1.41-3.47,1.73-.65.16-1.32.27-2.03.27-.79,0-1.54-.14-2.27-.34-1.21-.33-2.31-.89-3.23-1.67h-1.76c-1.47,1.24-3.39,2-5.5,2s-4.03-.76-5.5-2h-1.76c-1.47,1.24-3.39,2-5.5,2s-4.03-.76-5.5-2h-1.76c-1.47,1.24-3.39,2-5.5,2s-4.03-.76-5.5-2h-1.76c-.92.78-2.02,1.33-3.23,1.67-.72.2-1.48.34-2.27.34-.53,0-1.04-.05-1.54-.14-1.5-.27-2.86-.93-3.96-1.86h-1.76c-1.47,1.24-3.39,2-5.5,2s-4.03-.76-5.5-2h-1.76c-1.19,1.01-2.69,1.67-4.34,1.9-.38.05-.76.1-1.16.1-.53,0-1.04-.05-1.54-.14-1.5-.27-2.86-.93-3.96-1.86h-1.76c-1.47,1.24-3.39,2-5.5,2s-4.03-.76-5.5-2h-1.76c-1.47,1.24-3.39,2-5.5,2s-4.03-.76-5.5-2h-1.76c-.07.06-.16.11-.24.17-1.44,1.13-3.26,1.83-5.26,1.83-2.11,0-4.03-.76-5.5-2h-1.76c-.36.31-.76.59-1.17.83-.23.13-.48.23-.72.34-.2.09-.39.21-.6.28-.31.12-.64.19-.97.27-.16.04-.3.1-.46.13-.34.06-.7.08-1.06.1-.16,0-.31.04-.47.04-2.08-.02-3.97-.77-5.42-2h-1.89c-1.45,1.23-3.34,1.98-5.42,2-2.09-.01-3.99-.77-5.44-2h-1.81c-1.46,1.24-3.37,1.99-5.47,2-2.1,0-4.01-.76-5.47-2h-1.81c-1.46,1.24-3.37,1.99-5.47,2-2.1,0-4.01-.76-5.47-2h-1.81c-1.46,1.24-3.37,1.99-5.48,2-2.1,0-4.01-.76-5.48-2h-1.81c-1.46,1.24-3.37,1.99-5.47,2-2.1,0-4.01-.76-5.47-2h-1.81c-1.46,1.24-3.37,1.99-5.47,2-2.1,0-4.01-.76-5.47-2h-1.81c-1.46,1.24-3.37,1.99-5.47,2-2.1,0-4.01-.76-5.47-2h-1.81c-1.46,1.24-3.37,1.99-5.47,2-2.1,0-4.01-.76-5.47-2h-1.81c-1.46,1.24-3.37,1.99-5.48,2-2.1,0-4.01-.76-5.48-2h-1.81c-1.46,1.24-3.37,1.99-5.47,2-2.1,0-4.01-.76-5.47-2h-1.81c-1.46,1.24-3.37,1.99-5.47,2-2.1,0-4.01-.76-5.47-2h-1.81c-1.46,1.24-3.37,1.99-5.47,2-2.1,0-4.01-.76-5.47-2h-1.81c-1.46,1.24-3.37,1.99-5.47,2-2.1,0-4.01-.76-5.47-2h-1.81c-1.46,1.24-3.37,1.99-5.48,2-2.1,0-4.01-.76-5.48-2h-1.81c-1.46,1.24-3.37,1.99-5.47,2-2.1,0-4.01-.76-5.47-2h-1.77S49.54,0,49.54,0h-.04c-1.47,1.24-3.39,2-5.5,2S39.97,1.25,38.5,0h-1.76c-1.45,1.22-3.34,1.98-5.41,2-2.08-.02-3.97-.77-5.41-2h-1.76c-1.47,1.24-3.39,2-5.5,2S14.62,1.25,13.16,0h-1.76c-1.47,1.24-3.39,2-5.5,2S1.86,1.25.4,0h-.4v4.73Z"/>
  </g>
</svg>