<?xml version="1.0" encoding="UTF-8"?>
<svg id="Capa_2" data-name="Capa 2" xmlns="http://www.w3.org/2000/svg" viewBox="0 0 85.74 5.4">
  <defs>
    <style>
      .cls-1 {
        fill: #1aa1bb;
      }
    </style>
  </defs>
  <g id="Capa_3" data-name="Capa 3">
    <path class="cls-1" d="M42.87,0c2.51,0,3.12,1.97,5.45,1.97s4.16-.93,4.41-1.42c0,0,.65,1.54,4.94,1.54s4.74-1.71,4.74-1.71c0,0,4.93,1.84,21.37,2.09,2.63.04,2.63.44,0,.47-17.38.22-21.37,2.09-21.37,2.09,0,0-.45-1.71-4.74-1.71s-4.94,1.54-4.94,1.54c-.25-.49-2.08-1.42-4.41-1.42s-2.94,1.97-5.45,1.97-3.12-1.97-5.45-1.97-4.16.93-4.41,1.42c0,0-.65-1.54-4.93-1.54s-4.74,1.71-4.74,1.71c0,0-5.8-1.87-21.37-2.09-2.63-.04-2.63-.49,0-.47,14.94.07,21.37-2.09,21.37-2.09,0,0,.45,1.71,4.74,1.71s4.93-1.54,4.93-1.54c.25.49,2.08,1.42,4.41,1.42s2.94-1.97,5.45-1.97"/>
  </g>
</svg>